<svg width="767" height="589" viewBox="0 0 767 589" fill="none" xmlns="http://www.w3.org/2000/svg">
<g id="undraw_Booked_re_vtod 1" clip-path="url(#clip0)">
<g id="background">
<path id="Vector" opacity="0.1" d="M586.554 98.402C521.834 96.152 460.184 75.262 401.324 52.402C342.464 29.542 284.164 4.21197 220.994 -7.89803C180.364 -15.688 133.894 -16.788 101.164 4.99197C69.6541 25.992 59.4741 62.142 54.0041 95.722C49.8841 120.982 47.4641 147.562 58.7541 171.212C66.5841 187.632 80.4941 201.432 90.1041 217.212C123.574 271.932 99.9241 339.412 63.6541 392.842C46.6541 417.912 26.9041 441.842 13.7841 468.502C0.664081 495.162 -5.41592 525.752 6.06408 552.972C17.4541 579.972 44.5841 600.212 73.9641 614.462C133.654 643.412 203.964 651.692 272.574 656.382C424.404 666.772 577.034 662.272 729.264 657.772C785.604 656.102 842.184 654.412 897.604 645.702C928.384 640.862 960.154 633.192 982.504 614.652C1010.86 591.122 1017.89 551.272 998.894 521.772C967.004 472.282 878.894 459.992 856.574 406.872C844.314 377.642 856.914 345.082 874.734 317.962C912.974 259.802 977.064 208.772 980.444 142.292C982.764 96.622 951.944 50.902 904.304 29.292C854.374 6.56197 785.114 9.44196 748.294 46.932C710.354 85.562 643.694 100.382 586.554 98.402Z" fill="#FF8303"/>
</g>
<g id="d2">
<path id="Rectangle 30" d="M225 148.068H145V204.068H225V148.068Z" fill="#F2F2F2"/>
</g>
<g id="d4">
<path id="Rectangle 32" d="M449 148.068H369V204.068H449V148.068Z" fill="#F2F2F2"/>
</g>
<g id="d5">
<path id="Rectangle 33" d="M113 230.068H33V286.068H113V230.068Z" fill="#F2F2F2"/>
</g>
<g id="d7">
<path id="Rectangle 35" d="M337 230.068H257V286.068H337V230.068Z" fill="#F2F2F2"/>
</g>
<g id="d8" opacity="0.8">
<path id="Rectangle 36" d="M449 230.068H369V286.068H449V230.068Z" fill="#F2F2F2"/>
</g>
<g id="d6">
<path id="Rectangle 34" d="M225 230.068H145V286.068H225V230.068Z" fill="#F2F2F2"/>
<path id="Path 168" d="M171.649 285.742L152.764 259.661L157.908 255.937L172.364 275.9L227.681 219.068L232.231 223.498L171.649 285.742Z" fill="#FF8303"/>
</g>
<g id="d3">
<path id="Rectangle 31" d="M337 148.068H257V204.068H337V148.068Z" fill="#F2F2F2"/>
<path id="Path 176" d="M284.649 203.742L265.764 177.661L270.908 173.937L285.364 193.9L340.681 137.068L345.231 141.498L284.649 203.742Z" fill="#FF8303"/>
</g>
<g id="browser">
<path id="Path 146" d="M466.125 61.732H15.88C7.11496 61.747 0.0119695 70.522 -3.05176e-05 81.352V296.009C0.0119695 306.838 7.11496 315.609 15.88 315.629H466.125C474.89 315.614 481.993 306.839 482.005 296.009V81.351C481.993 70.522 474.89 61.751 466.125 61.731V61.732ZM480.139 296.009C480.129 305.565 473.862 313.309 466.127 313.32H15.88C8.14496 313.308 1.87997 305.565 1.86797 296.009V81.351C1.87697 71.795 8.14496 64.051 15.88 64.04H466.125C473.86 64.052 480.125 71.795 480.137 81.351L480.139 296.009Z" fill="#3F3D56"/>
<g id="first">
<g id="Path 140" filter="url(#filter0_d)">
<path d="M109.495 121.719C104.383 121.719 99.3861 120.203 95.1358 117.363C90.8854 114.523 87.5727 110.487 85.6164 105.764C83.6602 101.041 83.1484 95.8443 84.1456 90.8307C85.1429 85.817 87.6045 81.2117 91.2191 77.5971C94.8338 73.9825 99.4391 71.5209 104.453 70.5236C109.466 69.5263 114.663 70.0382 119.386 71.9944C124.109 73.9506 128.145 77.2634 130.985 81.5137C133.825 85.7641 135.341 90.7611 135.341 95.873C135.341 102.728 132.618 109.302 127.771 114.149C122.924 118.996 116.35 121.719 109.495 121.719ZM109.495 70.919C104.559 70.919 99.7346 72.3826 95.6308 75.1247C91.527 77.8667 88.3284 81.7642 86.4396 86.3241C84.5508 90.8841 84.0566 95.9017 85.0195 100.742C85.9824 105.583 88.3591 110.03 91.8492 113.52C95.3392 117.01 99.7857 119.387 104.627 120.349C109.467 121.312 114.485 120.818 119.045 118.929C123.605 117.041 127.502 113.842 130.244 109.738C132.986 105.634 134.45 100.81 134.45 95.874C134.45 92.5968 133.805 89.3518 132.55 86.3241C131.296 83.2964 129.458 80.5454 127.141 78.2281C124.824 75.9108 122.073 74.0727 119.045 72.8186C116.017 71.5644 112.772 70.919 109.495 70.919Z" fill="#F76801"/>
</g>
<path id="Rectangle 38" d="M109.836 0H108.469V95.99H109.836V0Z" fill="#2F2E41"/>
</g>
<g id="second">
<path id="Path 174" d="M371.495 121.719C366.383 121.719 361.386 120.203 357.136 117.363C352.885 114.523 349.573 110.487 347.616 105.764C345.66 101.041 345.148 95.8443 346.146 90.8307C347.143 85.817 349.605 81.2117 353.219 77.5971C356.834 73.9825 361.439 71.5209 366.453 70.5236C371.466 69.5263 376.663 70.0382 381.386 71.9944C386.109 73.9506 390.145 77.2634 392.985 81.5137C395.825 85.7641 397.341 90.7611 397.341 95.873C397.341 102.728 394.618 109.302 389.771 114.149C384.924 118.996 378.35 121.719 371.495 121.719ZM371.495 70.919C366.559 70.919 361.735 72.3826 357.631 75.1247C353.527 77.8667 350.328 81.7642 348.44 86.3241C346.551 90.8841 346.057 95.9017 347.02 100.742C347.982 105.583 350.359 110.03 353.849 113.52C357.339 117.01 361.786 119.387 366.627 120.349C371.467 121.312 376.485 120.818 381.045 118.929C385.605 117.041 389.502 113.842 392.244 109.738C394.986 105.634 396.45 100.81 396.45 95.874C396.45 92.5968 395.805 89.3518 394.55 86.3241C393.296 83.2964 391.458 80.5454 389.141 78.2281C386.824 75.9108 384.073 74.0727 381.045 72.8186C378.017 71.5644 374.772 70.919 371.495 70.919Z" fill="#FF8303"/>
<path id="Rectangle 40" d="M372.836 0H371.469V95.99H372.836V0Z" fill="#3F3D56"/>
</g>
</g>
<g id="d1">
<path id="Rectangle 21" d="M113 148.068H33V204.068H113V148.068Z" fill="#F2F2F2"/>
<path id="Path 238" d="M56.734 204L42 183.659L46.0133 180.755L57.2919 196.324L100.45 152L104 155.455L56.734 204Z" fill="#FF8303"/>
</g>
<g id="fullbody">
<path id="Path 200" d="M656.249 372.786C656.779 372.628 657.321 372.512 657.87 372.439L679.77 327.939L673.084 317.916L686.891 305.849L704.248 327.089L668.897 378.537C669.769 380.483 670.027 382.649 669.638 384.746C669.248 386.842 668.23 388.771 666.718 390.274C665.205 391.778 663.271 392.785 661.172 393.163C659.073 393.54 656.909 393.27 654.968 392.387C653.027 391.504 651.4 390.051 650.305 388.221C649.21 386.392 648.697 384.272 648.837 382.144C648.976 380.016 649.759 377.981 651.084 376.309C652.408 374.637 654.209 373.409 656.249 372.786Z" fill="#FFB8B8"/>
<path id="Path 201" d="M693.632 312.004C693.334 312.318 692.991 312.588 692.616 312.804L670.21 325.793C669.177 326.392 667.949 326.555 666.796 326.248C665.643 325.941 664.659 325.189 664.06 324.156C663.998 324.048 663.939 323.938 663.886 323.825L652.986 300.802C652.522 299.833 652.422 298.73 652.705 297.694C652.987 296.657 653.632 295.757 654.523 295.157L668.412 285.709C669.279 285.119 670.325 284.851 671.369 284.95C672.413 285.049 673.39 285.51 674.13 286.253L693.543 305.734C694.37 306.563 694.841 307.681 694.857 308.851C694.873 310.022 694.433 311.152 693.629 312.003L693.632 312.004Z" fill="#CCCCCC"/>
<path id="Path 202" d="M725.092 566.975L713.262 570.194L695.217 526.094L712.677 521.343L725.092 566.975Z" fill="#FFB8B8"/>
<path id="Path 203" d="M703.896 569.107L726.709 562.9L730.617 577.261L693.438 587.377C692.402 583.567 692.921 579.501 694.882 576.074C696.843 572.648 700.085 570.14 703.895 569.103H703.895L703.896 569.107Z" fill="#2F2E41"/>
<path id="Path 204" d="M623.961 576.002H611.7L605.867 528.714H623.961V576.002Z" fill="#FFB8B8"/>
<path id="Path 205" d="M602.944 572.498H626.588V587.386H588.057C588.057 585.431 588.442 583.495 589.19 581.689C589.938 579.883 591.034 578.242 592.417 576.859C593.799 575.477 595.44 574.38 597.246 573.632C599.052 572.883 600.988 572.498 602.943 572.498H602.944Z" fill="#2F2E41"/>
<path id="Path 206" d="M623.21 542.286H606.457C605.311 542.285 604.208 541.848 603.372 541.064C602.537 540.28 602.031 539.207 601.957 538.063C596.965 458.702 599.885 401.774 611.147 358.91C611.196 358.722 611.257 358.538 611.329 358.358L612.229 356.115C612.561 355.278 613.137 354.561 613.882 354.056C614.628 353.551 615.508 353.283 616.408 353.286H650.86C651.509 353.285 652.151 353.426 652.741 353.697C653.331 353.968 653.855 354.364 654.277 354.857L658.956 360.317C659.047 360.423 659.133 360.532 659.215 360.646C680.315 390.072 699.226 447.6 721.127 524.924C721.45 526.048 721.322 527.253 720.77 528.284C720.217 529.314 719.284 530.089 718.169 530.441L700.169 536.203C699.135 536.529 698.019 536.472 697.024 536.044C696.028 535.616 695.219 534.845 694.744 533.871L648.021 436.964C647.694 436.287 647.158 435.733 646.492 435.384C645.826 435.035 645.065 434.91 644.322 435.028C643.58 435.145 642.894 435.498 642.368 436.036C641.842 436.573 641.503 437.265 641.401 438.01L627.669 538.395C627.518 539.472 626.984 540.458 626.165 541.172C625.346 541.887 624.297 542.283 623.21 542.286Z" fill="#2F2E41"/>
<path id="Path 207" d="M657.068 360.717H656.927L615.076 359.393C614 359.363 612.971 358.947 612.176 358.221C611.381 357.495 610.874 356.508 610.747 355.439C605.447 312.498 619.991 300.994 626.493 298.039C627.036 297.794 627.507 297.412 627.859 296.932C628.212 296.451 628.434 295.888 628.505 295.296L629.068 290.796C629.164 290.001 629.471 289.246 629.957 288.61C640.151 275.405 654.07 271.176 661.457 269.832C662.63 269.621 663.838 269.885 664.817 270.565C665.795 271.246 666.463 272.287 666.674 273.46C666.687 273.533 666.698 273.608 666.708 273.682L667.551 280.145C667.637 280.761 667.883 281.344 668.264 281.836C689.523 309.628 665.84 350.663 660.876 358.607C660.471 359.252 659.909 359.783 659.244 360.152C658.578 360.521 657.829 360.715 657.068 360.717Z" fill="#CCCCCC"/>
<g id="head">
<path id="Ellipse 33" d="M636.878 270.012C650.443 270.012 661.439 259.016 661.439 245.451C661.439 231.886 650.443 220.89 636.878 220.89C623.313 220.89 612.317 231.886 612.317 245.451C612.317 259.016 623.313 270.012 636.878 270.012Z" fill="#FFB8B8"/>
<path id="Path 208" d="M686.431 248.216C680.952 240.501 674.382 233.623 666.926 227.796C660.726 222.955 653.826 218.818 646.217 216.84C638.608 214.862 630.198 215.198 623.254 218.889C616.31 222.58 609.129 229.914 609.085 237.778C609.071 240.305 609.714 243.723 612.202 243.286L612.922 243.386L630.929 239.749L638.598 266.365C639.137 268.235 639.86 270.326 641.635 271.123C643.307 271.874 645.235 271.166 646.935 270.46C647.213 270.344 649.603 264.978 649.603 264.978C649.663 264.81 649.766 264.662 649.903 264.547C650.04 264.433 650.204 264.357 650.38 264.328C650.556 264.299 650.736 264.317 650.902 264.38C651.069 264.444 651.215 264.551 651.326 264.69L652.746 266.465C653.017 266.805 653.391 267.047 653.812 267.155C654.232 267.264 654.677 267.232 655.078 267.065L684.444 254.806C685.797 254.241 687.309 253.506 687.701 252.091C688.071 250.73 687.243 249.362 686.431 248.216Z" fill="#2F2E41"/>
</g>
<g id="movinghand">
<path id="Path 239" d="M643.899 414.389L612.281 420.482L611.08 414.246L635.282 409.581L607.152 335.429L613.09 333.177L643.899 414.389Z" fill="#FF8303"/>
<path id="Path 211" d="M653.165 421.752C654.451 420.85 655.523 419.677 656.306 418.316C657.09 416.955 657.565 415.439 657.699 413.874C657.833 412.31 657.623 410.735 657.082 409.26C656.542 407.786 655.685 406.447 654.571 405.34L662.344 311.469L639.2 314.653L638.76 405.853C637.021 407.846 636.073 410.408 636.097 413.054C636.122 415.699 637.116 418.244 638.892 420.204C640.668 422.165 643.102 423.406 645.732 423.692C648.362 423.977 651.005 423.287 653.16 421.753L653.165 421.752Z" fill="#FFB8B8"/>
<path id="Path 212" d="M663.857 324.986C663.424 324.986 662.993 324.924 662.577 324.801L637.731 317.493C637.164 317.326 636.635 317.049 636.176 316.678C635.716 316.307 635.333 315.849 635.05 315.331C634.767 314.812 634.589 314.242 634.526 313.655C634.463 313.067 634.517 312.473 634.684 311.906C634.719 311.786 634.759 311.668 634.804 311.552L643.999 287.798C644.382 286.794 645.114 285.962 646.06 285.453C647.006 284.945 648.103 284.793 649.152 285.026L665.567 288.594C666.592 288.817 667.506 289.391 668.153 290.216C668.8 291.041 669.138 292.067 669.109 293.115L668.345 320.607C668.313 321.777 667.827 322.889 666.989 323.706C666.151 324.524 665.027 324.982 663.857 324.985V324.986Z" fill="#CCCCCC"/>
</g>
<path id="Path 88" d="M765.381 588.521H386.13C385.942 588.533 385.754 588.507 385.577 588.444C385.399 588.381 385.237 588.282 385.1 588.153C384.962 588.024 384.853 587.869 384.778 587.696C384.703 587.523 384.664 587.337 384.664 587.149C384.664 586.961 384.703 586.775 384.778 586.602C384.853 586.429 384.962 586.274 385.1 586.145C385.237 586.017 385.399 585.918 385.577 585.854C385.754 585.791 385.942 585.765 386.13 585.777H765.381C765.569 585.765 765.757 585.791 765.934 585.854C766.112 585.918 766.274 586.017 766.411 586.145C766.549 586.274 766.658 586.429 766.733 586.602C766.808 586.775 766.847 586.961 766.847 587.149C766.847 587.337 766.808 587.523 766.733 587.696C766.658 587.869 766.549 588.024 766.411 588.153C766.274 588.282 766.112 588.381 765.934 588.444C765.757 588.507 765.569 588.533 765.381 588.521Z" fill="#3F3D56"/>
<g id="flower">
<path id="Path 149" d="M444.824 586.814C444.713 586.63 442.05 582.186 441.127 572.96C440.281 564.495 440.825 550.227 448.225 530.324C462.243 492.619 444.994 462.197 444.818 461.894L445.669 461.4C448.989 467.757 451.388 474.553 452.794 481.585C456.268 497.96 455.003 514.986 449.147 530.667C435.153 568.308 445.557 586.126 445.664 586.302L444.824 586.814Z" fill="#FBA750"/>
<path id="Ellipse 19" d="M439.342 459.681C442.873 459.681 445.736 456.818 445.736 453.287C445.736 449.757 442.873 446.894 439.342 446.894C435.812 446.894 432.949 449.757 432.949 453.287C432.949 456.818 435.812 459.681 439.342 459.681Z" fill="#FBA750"/>
<path id="Ellipse 20" d="M459.505 483.286C463.036 483.286 465.898 480.423 465.898 476.892C465.898 473.361 463.036 470.499 459.505 470.499C455.974 470.499 453.112 473.361 453.112 476.892C453.112 480.423 455.974 483.286 459.505 483.286Z" fill="#FBA750"/>
<path id="Ellipse 21" d="M445.735 499.023C449.266 499.023 452.128 496.16 452.128 492.629C452.128 489.099 449.266 486.236 445.735 486.236C442.204 486.236 439.342 489.099 439.342 492.629C439.342 496.16 442.204 499.023 445.735 499.023Z" fill="#FBA750"/>
<path id="Ellipse 22" d="M462.456 512.301C465.987 512.301 468.849 509.438 468.849 505.907C468.849 502.376 465.987 499.514 462.456 499.514C458.925 499.514 456.062 502.376 456.062 505.907C456.062 509.438 458.925 512.301 462.456 512.301Z" fill="#FBA750"/>
<path id="Ellipse 23" d="M440.817 532.955C444.348 532.955 447.211 530.092 447.211 526.562C447.211 523.031 444.348 520.168 440.817 520.168C437.287 520.168 434.424 523.031 434.424 526.562C434.424 530.092 437.287 532.955 440.817 532.955Z" fill="#FBA750"/>
<path id="Path 150" d="M448.686 587.047C448.686 587.047 442.292 571.31 461.472 559.508L448.686 587.047Z" fill="#FBA750"/>
<path id="Path 151" d="M440.824 586.764C440.824 586.764 437.915 570.03 415.395 570.173L440.824 586.764Z" fill="#FBA750"/>
</g>
</g>
<g id="leaves">
<g id="Vector_2" style="mix-blend-mode:darken">
<path d="M322.02 379.08C322.02 379.08 284.02 376.79 288.46 403.45C288.46 403.45 287.57 408.16 291.84 410.3C291.84 410.3 291.91 408.3 295.74 408.99C297.107 409.219 298.497 409.286 299.88 409.19C301.727 409.054 303.481 408.324 304.88 407.11V407.11C304.88 407.11 315.58 402.69 319.73 385.21C319.73 385.21 322.81 381.4 322.73 380.42L316.31 383.16C316.31 383.16 318.5 387.79 316.78 391.64C316.78 391.64 316.57 383.33 315.34 383.52C315.09 383.52 312 385.13 312 385.13C312 385.13 315.77 393.2 312.93 399.06C312.93 399.06 314.01 389.12 310.82 385.71L306.3 388.35C306.3 388.35 310.71 396.68 307.72 403.48C307.72 403.48 308.49 393.05 305.35 388.99L301.26 392.19C301.26 392.19 305.4 400.4 302.87 406.04C302.87 406.04 302.54 393.9 300.37 392.98C300.37 392.98 296.79 396.14 296.24 397.44C296.24 397.44 299.08 403.44 297.32 406.55C297.32 406.55 296.24 398.46 295.32 398.42C295.32 398.42 291.75 403.78 291.38 407.42C291.553 404.025 292.615 400.735 294.46 397.88C292.4 398.27 290.499 399.254 288.99 400.71C288.99 400.71 289.55 396.92 295.34 396.59C295.34 396.59 298.29 392.52 299.08 392.27C299.08 392.27 293.32 391.79 289.82 393.34C289.82 393.34 292.9 389.77 300.13 391.34L304.13 388.04C304.13 388.04 296.54 387.04 293.33 388.15C293.33 388.15 297.03 384.99 305.22 387.29L309.62 384.66C309.62 384.66 303.15 383.27 299.3 383.77C299.3 383.77 303.36 381.58 310.91 383.95L314.06 382.54C314.06 382.54 309.32 381.61 307.93 381.46C306.54 381.31 306.47 380.93 306.47 380.93C309.472 380.431 312.554 380.777 315.37 381.93C315.37 381.93 322.14 379.5 322.02 379.08Z" fill="#FF8303"/>
</g>
<g id="Vector_3" style="mix-blend-mode:darken">
<path d="M245.977 353.097C245.977 353.097 229.427 318.767 208.337 335.687C208.337 335.687 203.797 337.207 204.007 341.977C204.007 341.977 205.767 341.077 207.007 344.747C207.473 346.053 208.094 347.299 208.857 348.457C209.877 350.023 211.379 351.213 213.137 351.847V351.847C213.137 351.847 222.217 359.027 239.497 354.137C239.497 354.137 244.327 354.957 245.127 354.377L239.637 350.097C239.637 350.097 236.637 354.277 232.467 354.647C232.467 354.647 239.617 350.407 238.847 349.427C238.687 349.227 235.847 347.297 235.847 347.297C235.847 347.297 230.647 354.527 224.137 354.897C224.137 354.897 233.347 350.997 234.767 346.557L230.197 343.917C230.197 343.917 225.077 351.827 217.677 352.537C217.677 352.537 227.157 348.117 229.177 343.397L224.387 341.397C224.387 341.397 219.237 349.027 213.087 349.567C213.087 349.567 223.517 343.357 223.257 341.017C223.257 341.017 218.757 339.427 217.357 339.587C217.357 339.587 213.537 344.967 209.927 344.967C209.927 344.967 216.467 340.077 216.067 339.287C216.067 339.287 209.647 338.787 206.257 340.287C209.303 338.773 212.692 338.083 216.087 338.287C214.745 336.68 212.962 335.501 210.957 334.897C210.957 334.897 214.537 333.537 217.647 338.427C217.647 338.427 222.647 339.027 223.237 339.597C223.237 339.597 220.847 334.327 217.787 332.037C217.787 332.037 222.407 332.977 224.517 340.087L229.377 342.007C229.377 342.007 226.587 334.877 224.017 332.627C224.017 332.627 228.577 334.317 230.557 342.627L235.007 345.187C235.007 345.187 233.067 338.867 230.747 335.747C230.747 335.747 234.647 338.227 236.247 345.967L239.017 348.027C239.017 348.027 237.527 343.437 237.017 342.157C236.507 340.877 236.767 340.627 236.767 340.627C238.664 343.004 239.865 345.859 240.237 348.877C240.237 348.877 245.667 353.417 245.977 353.097Z" fill="#FF8303"/>
</g>
<g id="Vector_4" style="mix-blend-mode:darken">
<path d="M288.09 500.39C288.09 500.39 271.54 466.05 250.42 482.97C250.42 482.97 245.88 484.49 246.09 489.26C246.09 489.26 247.85 488.36 249.09 492.03C249.553 493.336 250.171 494.581 250.93 495.74C251.949 497.306 253.452 498.496 255.21 499.13C255.21 499.13 264.29 506.32 281.58 501.42C281.58 501.42 286.4 502.25 287.2 501.66L281.68 497.39C281.68 497.39 278.68 501.57 274.5 501.94C274.5 501.94 281.65 497.7 280.88 496.72C280.72 496.52 277.88 494.59 277.88 494.59C277.88 494.59 272.68 501.82 266.17 502.2C266.17 502.2 275.38 498.29 276.8 493.85L272.29 491.19C272.29 491.19 267.17 499.11 259.77 499.81C259.77 499.81 269.25 495.39 271.27 490.67L266.48 488.67C266.48 488.67 261.33 496.29 255.18 496.84C255.18 496.84 265.62 490.63 265.36 488.28C265.36 488.28 260.85 486.69 259.45 486.85C259.45 486.85 255.63 492.23 252.02 492.23C252.02 492.23 258.56 487.34 258.16 486.55C258.16 486.55 251.74 486.05 248.35 487.55C251.399 486.037 254.792 485.347 258.19 485.55C256.846 483.94 255.059 482.761 253.05 482.16C253.05 482.16 256.63 480.79 259.74 485.69C259.74 485.69 264.74 486.28 265.33 486.85C265.33 486.85 262.94 481.59 259.89 479.29C259.89 479.29 264.51 480.23 266.62 487.34L271.47 489.26C271.47 489.26 268.68 482.13 266.11 479.89C266.11 479.89 270.67 481.57 272.65 489.89L277.1 492.44C277.1 492.44 275.16 486.12 272.84 483C272.84 483 276.74 485.48 278.35 493.23L281.12 495.23C281.12 495.23 279.62 490.64 279.12 489.36C278.62 488.08 278.87 487.83 278.87 487.83C280.771 490.204 281.973 493.061 282.34 496.08C282.34 496.08 287.78 500.69 288.09 500.39Z" fill="#FF8303"/>
</g>
</g>
</g>
<defs>
<filter id="filter0_d" x="79.649" y="70.027" width="59.692" height="59.692" filterUnits="userSpaceOnUse" color-interpolation-filters="sRGB">
<feFlood flood-opacity="0" result="BackgroundImageFix"/>
<feColorMatrix in="SourceAlpha" type="matrix" values="0 0 0 0 0 0 0 0 0 0 0 0 0 0 0 0 0 0 127 0"/>
<feOffset dy="4"/>
<feGaussianBlur stdDeviation="2"/>
<feColorMatrix type="matrix" values="0 0 0 0 0 0 0 0 0 0 0 0 0 0 0 0 0 0 0.25 0"/>
<feBlend mode="normal" in2="BackgroundImageFix" result="effect1_dropShadow"/>
<feBlend mode="normal" in="SourceGraphic" in2="effect1_dropShadow" result="shape"/>
</filter>
<clipPath id="clip0">
<rect width="766.847" height="588.524" fill="white"/>
</clipPath>
</defs>
</svg>
